# AST/ASF file generated using VICON BodyLanguage
# -----------------------------------------------
:version 1.10
:name VICON
:units
  mass 1.0
  length 0.45
  angle deg
:documentation
   .ast/.asf automatically generated from VICON data using
   VICON BodyBuilder and BodyLanguage model FoxedUp or BRILLIANT.MOD
:root
   order TX TY TZ RX RY RZ
   axis XYZ
   position 0 0 0  
   orientation 0 0 0 
:bonedata
  begin
     id 1 
     name lhipjoint
     direction 0.576517 -0.752066 0.319413 
     length 2.45433 
     axis 0 0 0  XYZ
  end
  begin
     id 2 
     name lfemur
     direction 0.34202 -0.939693 0  
     length 7.54459  
     axis 0 0 20  XYZ
    dof rx ry rz
    limits (-160.0 20.0)
           (-70.0 70.0)
           (-60.0 70.0)
  end
  begin
     id 3 
     name ltibia
     direction 0.34202 -0.939693 0   
     length 7.73986   
     axis 0 0 20   XYZ
    dof rx
    limits (-10.0 170.0)
  end
  begin
     id 4 
     name lfoot
     direction 0.090693 -0.249177 0.964202   
     length 2.28437   
     axis -90 7.62852e-016 20   XYZ
    dof rx rz
    limits (-45.0 90.0)
           (-70.0 20.0)
  end
  begin
     id 5 
     name ltoes
     direction 1.5356e-011 -4.21928e-011 1   
     length 1.14243   
     axis -90 7.62852e-016 20   XYZ
    dof rx
    limits (-90.0 20.0)
  end
  begin
     id 6 
     name rhipjoint
     direction -0.573937 -0.753736 0.320122   
     length 2.44889  
     axis 0 0 0  XYZ 
  end
  begin
     id 7 
     name rfemur
     direction -0.34202 -0.939693 0   
     length 7.50166   
     axis 0 0 -20   XYZ
    dof rx ry rz
    limits (-160.0 20.0)
           (-70.0 70.0)
           (-70.0 60.0)
  end
  begin
     id 8 
     name rtibia
     direction -0.34202 -0.939693 0   
     length 7.54266   
     axis 0 0 -20   XYZ
    dof rx
    limits (-10.0 170.0)
 end
 begin
     id 9 
     name rfoot
     direction -0.114017 -0.31326 0.942798   
     length 2.34212  
     axis -90 -7.62852e-016 -20   XYZ
    dof rx rz
    limits (-45.0 90.0)
           (-20.0 70.0)
  end
  begin
     id 10 
     name rtoes
     direction -1.53557e-011 -4.21867e-011 1   
     length 1.16246   
     axis -90 -7.62852e-016 -20   XYZ
    dof rx
    limits (-90.0 20.0)
  end
  begin
     id 11 
     name lowerback
     direction -0.0228371 0.999155 -0.034167   
     length 2.0537   
     axis 0 0 0   XYZ
    dof rx ry rz
    limits (-20.0 45.0)
           (-30.0 30.0)
           (-30.0 30.0)
  end
  begin
     id 12 
     name upperback
     direction 0.0198981 0.999794 0.00389455   
     length 2.05302   
     axis 0 0 0   XYZ
    dof rx ry rz
    limits (-20.0 45.0)
           (-30.0 30.0)
           (-30.0 30.0)
  end
  begin
     id 13 
     name thorax
     direction 0.0304566 0.99935 0.0192987   
     length 2.05315   
     axis 0 0 0   XYZ
    dof rx ry rz
    limits (-20.0 45.0)
           (-30.0 30.0)
           (-30.0 30.0)
  end
  begin
     id 14 
     name lowerneck
     direction -0.0196762 0.99417 0.106017   
     length 1.82056   
     axis 0 0 0   XYZ
    dof rx ry rz
    limits (-20.0 45.0)
           (-30.0 30.0)
           (-30.0 30.0)
  end
  begin
     id 15 
     name upperneck
     direction 0.00517787 0.9802 -0.197944   
     length 1.83835   
     axis 0 0 0   XYZ
    dof rx ry rz
    limits (-20.0 45.0)
           (-30.0 30.0)
           (-30.0 30.0)
  end
  begin
     id 16
     name head
     direction 0.00211419 0.996945 -0.078081  
     length 1.85629  
     axis 0 0 0   XYZ
    dof rx ry rz
    limits (-20.0 45.0)
           (-30.0 30.0)
           (-30.0 30.0)
  end
  begin
     id 17 
     name lclavicle
     direction 0.930001 0.365811 -0.0357824  
     length 3.81961  
     axis 0 0 0   XYZ
    dof ry rz
    limits (-20.0 10.0)
           (0.0 20.0)
  end
  begin
     id 18 
     name lhumerus
     direction 1 -4.48968e-011 -3.06644e-027   
     length 5.14507   
     axis 180 -30 -90   XYZ
    dof rx ry rz
    limits (-60.0 90.0)
           (-90.0 90.0)
           (-90.0 90.0)
  end
  begin
     id 19
     name lradius
     direction 1 -4.48965e-011 9.06925e-028   
     length 3.50646   
     axis 180 -30 -90   XYZ
    dof rx
    limits (-10.0 170.0)
  end
  begin
     id 20
     name lwrist
     direction 1 -4.48957e-011 1.03922e-027   
     length 1.75323   
     axis -2.56395e-016 90 90   XYZ
    dof ry
    limits (-180.0 0.0)
 end
  begin
     id 21 
     name lhand
     direction 1 -4.48967e-011 2.08017e-027   
     length 0.629969   
     axis -1.32723e-015 90 90   XYZ
    dof rx rz
    limits (-90.0 90.0)
           (-45.0 45.0)
  end
  begin
     id 22 
     name lfingers
     direction 1 -4.49089e-011 4.20095e-027   
     length 0.507897   
     axis -2.6545e-015 90 90   XYZ
    dof rx
    limits (0.0 90.0)
  end
  begin
     id 23
     name lthumb
     direction 0.707107 -6.35001e-011 0.707107   
     length 0.729241   
     axis -90 45 5.05613e-014   XYZ
    dof rx rz
    limits (-45.0 45.0)
           (-45.0 45.0)
  end
  begin
     id 24 
     name rclavicle
     direction -0.881882 0.464123 -0.0829113   
     length 3.47515  
     axis 0 0 0   XYZ 
    dof ry rz
    limits (-10.0 20.0)
           (-20.0 0.0)
  end
  begin
     id 25 
     name rhumerus
     direction -1 -4.48961e-011 -1.55672e-027  
     length 5.232   
     axis 180 30 90   XYZ
    dof rx ry rz
    limits (-90.0 60.0)
           (-90.0 90.0)
           (-90.0 90.0)
  end
  begin
     id 26 
     name rradius
     direction -1 -4.48963e-011 6.18178e-029   
     length 3.65641   
     axis 180 30 90   XYZ
    dof rx
    limits (-10.0 170.0)
  end
  begin
     id 27 
     name rwrist
     direction -1 -4.48982e-011 1.04136e-027   
     length 1.8282   
     axis -2.56395e-016 -90 -90   XYZ
    dof ry
    limits (-180.0 0.0)
  end
  begin
     id 28
     name rhand
     direction -1 -4.48929e-011 2.07378e-027   
     length 0.656807   
     axis -1.32723e-015 -90 -90   XYZ
    dof rx rz
    limits (-90.0 90.0)
           (-45.0 45.0)
  end
  begin
     id 29
     name rfingers
     direction -1 -4.489e-011 4.13816e-027   
     length 0.529535   
     axis -2.6545e-015 -90 -90   XYZ
    dof rx
    limits (0.0 90.0)
  end
  begin
     id 30
     name rthumb
     direction -0.707107 -6.34843e-011 0.707107   
     length 0.760309   
     axis -90 -45 -5.05613e-014   XYZ
    dof rx rz
    limits (-45.0 45.0)
           (-45.0 45.0)
  end
:hierarchy
  begin
    root lhipjoint rhipjoint lowerback
    lhipjoint lfemur
    lfemur ltibia
    ltibia lfoot
    lfoot ltoes
    rhipjoint rfemur
    rfemur rtibia
    rtibia rfoot
    rfoot rtoes
    lowerback upperback
    upperback thorax
    thorax lowerneck lclavicle rclavicle
    lowerneck upperneck
    upperneck head
    lclavicle lhumerus
    lhumerus lradius
    lradius lwrist
    lwrist lhand lthumb
    lhand lfingers
    rclavicle rhumerus
    rhumerus rradius
    rradius rwrist
    rwrist rhand rthumb
    rhand rfingers
  end

#!OML:ASF H:\ManfredETheater\Project 1\Capture day 1\Session 1\subject.ASF
:FULLY-SPECIFIED
:DEGREES
1
root 1.65332 17.1587 34.1292 -175.372 -5.52332 178.697
lowerback -1.18099 -0.478379 -2.68008
upperback -3.57686 -0.764093 1.38681
thorax -2.96585 -0.345486 2.94461
lowerneck -19.6851 -1.51594 -3.5063
upperneck 23.4172 -1.78858 0.917126
head 10.8556 -1.22291 0.610179
rclavicle 4.96962e-015 7.15625e-015
rhumerus -36.2012 -5.94777 -81.9898
rradius 29.6432
rwrist 2.67984
rhand -18.8119 -11.7621
rfingers 7.12502
rthumb 7.48673 -41.6096
lclavicle 4.96962e-015 7.15625e-015
lhumerus -32.5298 4.89458 88.1284
lradius 27.632
lwrist -17.4884
lhand -7.33199 9.4653
lfingers 7.12502
lthumb 18.5515 38.6007
rfemur -12.5626 -0.596036 16.1413
rtibia 33.5987
rfoot -21.582 -14.0359
rtoes 5.9628
lfemur -15.5423 -5.16929 -19.1257
ltibia 35.3715
lfoot -21.0872 2.05208
ltoes -0.185713
2
root 1.65161 17.1578 34.1266 -175.399 -5.4937 178.695
lowerback -1.18148 -0.470073 -2.67272
upperback -3.58442 -0.753678 1.37701
thorax -2.97432 -0.340597 2.9303
lowerneck -19.6734 -1.51006 -3.5091
upperneck 23.4502 -1.78583 0.924309
head 10.8656 -1.22279 0.613417
rclavicle -1.77912e-014 -8.34896e-015
rhumerus -36.2329 -5.85608 -82.0372
rradius 29.7176
rwrist 2.59648
rhand -18.7518 -11.8803
rfingers 7.12502
rthumb 7.54472 -41.7257
lclavicle -1.77912e-014 -8.34896e-015
lhumerus -32.5891 4.89831 88.1132
lradius 27.6318
lwrist -17.4981
lhand -7.32771 9.47171
lfingers 7.12502
lthumb 18.5556 38.6067
rfemur -12.524 -0.590308 16.1273
rtibia 33.5876
rfoot -21.5899 -14.0079
rtoes 5.98012
lfemur -15.4925 -5.16109 -19.1419
ltibia 35.3667
lfoot -21.0996 2.08538
ltoes -0.193796
3
root 1.65118 17.1575 34.1262 -175.416 -5.50132 178.703
lowerback -1.1917 -0.476956 -2.67051
upperback -3.5764 -0.762169 1.37669
thorax -2.95966 -0.345084 2.92859
lowerneck -19.6801 -1.49975 -3.50183
upperneck 23.4539 -1.77371 0.926103
head 10.8679 -1.21639 0.614633
rclavicle 4.27387e-015 -1.74931e-014
rhumerus -36.1957 -5.78951 -82.0826
rradius 29.7589
rwrist 2.53845
rhand -18.6252 -12.2998
rfingers 7.12502
rthumb 7.6669 -42.1408
lclavicle 4.27387e-015 -1.74931e-014
lhumerus -32.5914 4.93899 88.0914
lradius 27.595
lwrist -17.527
lhand -7.34649 9.42112
lfingers 7.12502
lthumb 18.5376 38.5578
rfemur -12.497 -0.585062 16.1389
rtibia 33.5759
rfoot -21.5875 -14.0404
rtoes 5.916
lfemur -15.4754 -5.15783 -19.1339
ltibia 35.3727
lfoot -21.1062 2.07272
ltoes -0.205527
4
root 1.65034 17.1574 34.1248 -175.425 -5.44884 178.739
lowerback -1.20324 -0.451909 -2.63106
upperback -3.59267 -0.729867 1.36833
thorax -2.97268 -0.330346 2.89741
lowerneck -19.6453 -1.49399 -3.48137
upperneck 23.4706 -1.77893 0.932915
head 10.8673 -1.21764 0.612871
rclavicle -1.11816e-014 7.95139e-015
rhumerus -36.2149 -5.75408 -82.1249
rradius 29.7937
rwrist 2.53021
rhand -17.8186 -14.5869
rfingers 7.12502
rthumb 8.44539 -44.398
lclavicle -1.11816e-014 7.95139e-015
lhumerus -32.6446 4.92701 88.0617
lradius 27.5721
lwrist -17.5571
lhand -7.32627 9.49697
lfingers 7.12502
lthumb 18.557 38.6318
rfemur -12.4886 -0.545725 16.1713
rtibia 33.5657
rfoot -21.5936 -14.0191
rtoes 6.00319
lfemur -15.4594 -5.12567 -19.1015
ltibia 35.3771
lfoot -21.1193 2.10258
ltoes -0.195237
5
root 1.64958 17.1573 34.1245 -175.428 -5.45472 178.737
lowerback -1.19877 -0.458667 -2.63219
upperback -3.61652 -0.740766 1.36435
thorax -2.99922 -0.335736 2.89443
lowerneck -19.6143 -1.48079 -3.48594
upperneck 23.4943 -1.76426 0.932671
head 10.8698 -1.21335 0.615637
rclavicle 6.43565e-015 -2.5842e-014
rhumerus -36.2312 -5.72998 -82.1362
rradius 29.8058
rwrist 2.52229
rhand -18.6354 -12.1513
rfingers 7.12502
rthumb 7.65708 -41.9927
lclavicle 6.43565e-015 -2.5842e-014
lhumerus -32.6976 5.01444 88.0156
lradius 27.5276
lwrist -17.6186
lhand -7.39606 9.45114
lfingers 7.12502
lthumb 18.4899 38.5924
rfemur -12.4788 -0.561792 16.166
rtibia 33.5569
rfoot -21.5793 -14.0098
rtoes 5.97083
lfemur -15.4587 -5.11624 -19.1064
ltibia 35.3838
lfoot -21.1541 2.06438
ltoes 0.0385679
6
root 1.64884 17.1571 34.1239 -175.44 -5.44175 178.749
lowerback -1.1948 -0.456007 -2.61846
upperback -3.63322 -0.738529 1.35982
thorax -3.01909 -0.335013 2.88225
lowerneck -19.5926 -1.46984 -3.48151
upperneck 23.5198 -1.75509 0.933248
head 10.8748 -1.21044 0.616332
rclavicle -5.14355e-015 9.93923e-015
rhumerus -36.2421 -5.69563 -82.1609
rradius 29.8296
rwrist 2.50492
rhand -18.6645 -12.0316
rfingers 7.12502
rthumb 7.629 -41.874
lclavicle -5.14355e-015 9.93923e-015
lhumerus -32.747 5.07105 87.9749
lradius 27.4923
lwrist -17.6624
lhand -7.4319 9.44543
lfingers 7.12502
lthumb 18.4554 38.59
rfemur -12.4626 -0.557919 16.1752
rtibia 33.5494
rfoot -21.5757 -14.0016
rtoes 5.96216
lfemur -15.4454 -5.09718 -19.0975
ltibia 35.3905
lfoot -21.1761 2.0511
ltoes 0.146112
7
root 1.64822 17.1569 34.1234 -175.455 -5.43591 178.76
lowerback -1.18425 -0.456512 -2.60519
upperback -3.65247 -0.740756 1.35543
thorax -3.045 -0.336411 2.87065
lowerneck -19.5705 -1.4575 -3.47533
upperneck 23.55 -1.74393 0.929624
head 10.8813 -1.20723 0.615473
rclavicle 1.17531e-014 1.31198e-014
rhumerus -36.254 -5.67242 -82.1796
rradius 29.8442
rwrist 2.49765
rhand -18.7002 -11.8936
rfingers 7.12502
rthumb 7.59454 -41.7372
lclavicle 1.17531e-014 1.31198e-014
lhumerus -32.8009 5.14122 87.9274
lradius 27.4529
lwrist -17.7093
lhand -7.48032 9.44105
lfingers 7.12502
lthumb 18.4088 38.59
rfemur -12.4442 -0.558696 16.185
rtibia 33.5438
rfoot -21.5725 -13.9958
rtoes 5.94705
lfemur -15.4315 -5.07734 -19.0879
ltibia 35.3965
lfoot -21.1957 2.02977
ltoes 0.255487
8
root 1.64769 17.1567 34.1231 -175.47 -5.43176 178.771
lowerback -1.16247 -0.458181 -2.59422
upperback -3.67796 -0.745105 1.35144
thorax -3.08355 -0.33863 2.86101
lowerneck -19.5474 -1.44375 -3.46678
upperneck 23.588 -1.73093 0.920184
head 10.8905 -1.20413 0.612319
rclavicle -2.98177e-016 -2.78299e-015
rhumerus -36.2743 -5.65881 -82.191
rradius 29.8531
rwrist 2.49662
rhand -18.7344 -11.7582
rfingers 7.12502
rthumb 7.56155 -41.603
lclavicle -2.98177e-016 -2.78299e-015
lhumerus -32.8652 5.22598 87.8732
lradius 27.4099
lwrist -17.7599
lhand -7.54147 9.44146
lfingers 7.12502
lthumb 18.35 38.5959
rfemur -12.4247 -0.561572 16.1935
rtibia 33.5383
rfoot -21.5684 -13.9889
rtoes 5.92938
lfemur -15.4174 -5.05445 -19.0793
ltibia 35.4026
lfoot -21.2135 2.00464
ltoes 0.353984
9
root 1.6474 17.1565 34.1232 -175.488 -5.43666 178.78
lowerback -1.12889 -0.464104 -2.58576
upperback -3.70741 -0.755513 1.34892
thorax -3.13242 -0.343611 2.85461
lowerneck -19.5272 -1.42831 -3.45667
upperneck 23.633 -1.71517 0.905831
head 10.9026 -1.20052 0.607469
rclavicle 3.72721e-016 -4.77083e-015
rhumerus -36.2978 -5.6555 -82.1955
rradius 29.8556
rwrist 2.49998
rhand -18.78 -11.5932
rfingers 7.12502
rthumb 7.51752 -41.4396
lclavicle 3.72721e-016 -4.77083e-015
lhumerus -32.9349 5.32774 87.8122
lradius 27.3611
lwrist -17.8154
lhand -7.62579 9.43274
lfingers 7.12502
lthumb 18.2689 38.5948
rfemur -12.4024 -0.567304 16.2038
rtibia 33.5342
rfoot -21.5657 -13.9877
rtoes 5.90971
lfemur -15.4029 -5.03123 -19.0691
ltibia 35.4087
lfoot -21.2277 1.97182
ltoes 0.432407
